<?xml version="1.0" encoding="UTF-8" standalone="no"?>
<!-- Created with Inkscape (http://www.inkscape.org/) -->

<svg
   xmlns:dc="http://purl.org/dc/elements/1.1/"
   xmlns:cc="http://creativecommons.org/ns#"
   xmlns:rdf="http://www.w3.org/1999/02/22-rdf-syntax-ns#"
   xmlns:svg="http://www.w3.org/2000/svg"
   xmlns="http://www.w3.org/2000/svg"
   xmlns:xlink="http://www.w3.org/1999/xlink"
   xmlns:sodipodi="http://sodipodi.sourceforge.net/DTD/sodipodi-0.dtd"
   xmlns:inkscape="http://www.inkscape.org/namespaces/inkscape"
   width="350"
   height="350"
   id="svg2"
   version="1.1"
   inkscape:version="0.48.3.1 r9886"
   sodipodi:docname="favicon.svg">
  <defs
     id="defs4" />
  <sodipodi:namedview
     id="base"
     pagecolor="#ffffff"
     bordercolor="#666666"
     borderopacity="1.0"
     inkscape:pageopacity="0.0"
     inkscape:pageshadow="2"
     inkscape:zoom="0.98994949"
     inkscape:cx="128.52144"
     inkscape:cy="197.50068"
     inkscape:document-units="px"
     inkscape:current-layer="layer1"
     showgrid="false"
     inkscape:window-width="1280"
     inkscape:window-height="750"
     inkscape:window-x="0"
     inkscape:window-y="0"
     inkscape:window-maximized="1">
    <inkscape:grid
       type="xygrid"
       id="grid2985"
       empspacing="5"
       visible="true"
       enabled="true"
       snapvisiblegridlinesonly="true" />
  </sodipodi:namedview>
  <metadata
     id="metadata7">
    <rdf:RDF>
      <cc:Work
         rdf:about="">
        <dc:format>image/svg+xml</dc:format>
        <dc:type
           rdf:resource="http://purl.org/dc/dcmitype/StillImage" />
        <dc:title />
      </cc:Work>
    </rdf:RDF>
  </metadata>
  <g
     inkscape:label="Layer 1"
     inkscape:groupmode="layer"
     id="layer1"
     transform="translate(0,-702.36218)">
    <rect
       style="fill:#ffffff;fill-opacity:1;stroke:none"
       id="rect3066"
       width="350"
       height="350"
       x="0"
       y="702.36218" />
    <path
       style="fill:#000000;stroke:#000000;stroke-width:1.02816832px;stroke-linecap:butt;stroke-linejoin:miter;stroke-opacity:1"
       d="m 233.25079,879.23317 -116.32394,0.0804"
       id="path3777"
       inkscape:connector-curvature="0" />
    <path
       style="fill:none;stroke:#000000;stroke-width:1.02816832px;stroke-linecap:butt;stroke-linejoin:miter;stroke-opacity:1"
       d="m 175.04863,821.11139 0.0804,116.32394"
       id="path3779"
       inkscape:connector-curvature="0" />
    <path
       style="fill:none;stroke:#000000;stroke-width:1.02816832px;stroke-linecap:butt;stroke-linejoin:miter;stroke-opacity:1"
       d="m 204.14971,850.17228 -58.12178,58.20216"
       id="path3781"
       inkscape:connector-curvature="0" />
    <path
       style="fill:none;stroke:#000000;stroke-width:1.02816832px;stroke-linecap:butt;stroke-linejoin:miter;stroke-opacity:1"
       d="m 145.98774,850.21247 58.20216,58.12178"
       id="path3783"
       inkscape:connector-curvature="0" />
    <path
       style="fill:none;stroke:#000000;stroke-width:1.02816832px;stroke-linecap:butt;stroke-linejoin:miter;stroke-opacity:1"
       d="m 233.25079,879.23317 58.12178,-58.20214"
       id="path3785"
       inkscape:connector-curvature="0" />
    <path
       style="fill:none;stroke:#000000;stroke-width:1.02816832px;stroke-linecap:butt;stroke-linejoin:miter;stroke-opacity:1"
       d="m 175.04863,821.11139 58.1218,-58.20217"
       id="path3787"
       inkscape:connector-curvature="0" />
    <path
       style="fill:none;stroke:#000000;stroke-width:1.02816832px;stroke-linecap:butt;stroke-linejoin:miter;stroke-opacity:1"
       d="M 58.805067,937.51569 116.92685,879.31355"
       id="path3787-0"
       inkscape:connector-curvature="0" />
    <path
       style="fill:none;stroke:#000000;stroke-width:1.02816832px;stroke-linecap:butt;stroke-linejoin:miter;stroke-opacity:1"
       d="m 117.00721,995.63749 58.1218,-58.20216"
       id="path3787-5"
       inkscape:connector-curvature="0" />
    <path
       style="fill:none;stroke:#000000;stroke-width:1.02816832px;stroke-linecap:butt;stroke-linejoin:miter;stroke-opacity:1"
       d="m 233.25079,879.23317 58.20216,58.1218"
       id="path3814"
       inkscape:connector-curvature="0" />
    <path
       style="fill:none;stroke:#000000;stroke-width:1.02816832px;stroke-linecap:butt;stroke-linejoin:miter;stroke-opacity:1"
       d="m 175.12901,937.43533 58.20214,58.12178"
       id="path3814-2"
       inkscape:connector-curvature="0" />
    <path
       style="fill:none;stroke:#000000;stroke-width:1.02816832px;stroke-linecap:butt;stroke-linejoin:miter;stroke-opacity:1"
       d="m 58.724685,821.19175 58.202165,58.1218"
       id="path3814-8"
       inkscape:connector-curvature="0" />
    <path
       style="fill:none;stroke:#000000;stroke-width:1.02816832px;stroke-linecap:butt;stroke-linejoin:miter;stroke-opacity:1"
       d="m 116.84649,762.98961 58.20214,58.12178"
       id="path3814-5"
       inkscape:connector-curvature="0" />
    <path
       style="fill:none;stroke:#000000;stroke-width:1.02816832px;stroke-linecap:butt;stroke-linejoin:miter;stroke-opacity:1"
       d="m 262.31168,850.13209 87.26306,29.02071"
       id="path3848"
       inkscape:connector-curvature="0" />
    <path
       style="fill:none;stroke:#000000;stroke-width:1.02816832px;stroke-linecap:butt;stroke-linejoin:miter;stroke-opacity:1"
       d="M 262.35187,908.29406 349.57474,879.1528"
       id="path3850"
       inkscape:connector-curvature="0" />
    <path
       style="fill:none;stroke:#000000;stroke-width:1.02816832px;stroke-linecap:butt;stroke-linejoin:miter;stroke-opacity:1"
       d="M 204.10952,792.01031 174.96826,704.78744"
       id="path3871"
       inkscape:connector-curvature="0" />
    <path
       style="fill:none;stroke:#000000;stroke-width:1.02816832px;stroke-linecap:butt;stroke-linejoin:miter;stroke-opacity:1"
       d="m 145.94755,792.0505 29.02071,-87.26306"
       id="path3873"
       inkscape:connector-curvature="0" />
    <path
       style="fill:none;stroke:#000000;stroke-width:1.02816832px;stroke-linecap:butt;stroke-linejoin:miter;stroke-opacity:1"
       d="m 204.23009,966.49622 -29.02071,87.26308 -29.14126,-87.22289"
       id="path3875"
       inkscape:connector-curvature="0" />
    <path
       style="fill:none;stroke:#000000;stroke-width:1.02816832px;stroke-linecap:butt;stroke-linejoin:miter;stroke-opacity:1"
       d="M 87.825767,850.25266 0.6029042,879.39392 87.865958,908.41463"
       id="path3877"
       inkscape:connector-curvature="0" />
    <path
       style="fill:none;stroke:#000000;stroke-width:1.02816832px;stroke-linecap:butt;stroke-linejoin:miter;stroke-opacity:1"
       d="m 204.10952,792.01031 58.20216,58.12178"
       id="path3879"
       inkscape:connector-curvature="0" />
    <path
       style="fill:none;stroke:#000000;stroke-width:1.02816832px;stroke-linecap:butt;stroke-linejoin:miter;stroke-opacity:1"
       d="m 262.35187,908.29406 -58.12178,58.20216"
       id="path3881"
       inkscape:connector-curvature="0" />
    <path
       style="fill:none;stroke:#000000;stroke-width:1.02816832px;stroke-linecap:butt;stroke-linejoin:miter;stroke-opacity:1"
       d="M 145.94755,792.0505 87.825767,850.25266"
       id="path3883"
       inkscape:connector-curvature="0" />
    <path
       style="fill:none;stroke:#000000;stroke-width:1.02816832px;stroke-linecap:butt;stroke-linejoin:miter;stroke-opacity:1"
       d="m 87.865958,908.41463 58.202162,58.12178"
       id="path3885"
       inkscape:connector-curvature="0" />
    <path
       style="fill:none;stroke:#000000;stroke-width:1.02816832px;stroke-linecap:butt;stroke-linejoin:miter;stroke-opacity:1"
       d="m 291.37257,821.03103 -87.22286,29.14125 29.02072,-87.26306"
       id="path3887"
       inkscape:connector-curvature="0" />
    <path
       style="fill:none;stroke:#000000;stroke-width:1.02816832px;stroke-linecap:butt;stroke-linejoin:miter;stroke-opacity:1"
       d="m 218.66007,806.54076 29.08099,-0.02 0.02,29.08099"
       id="path3889"
       inkscape:connector-curvature="0" />
    <path
       style="fill:none;stroke:#000000;stroke-width:1.02816832px;stroke-linecap:butt;stroke-linejoin:miter;stroke-opacity:1"
       d="m 116.84649,762.98961 29.14125,87.22286 -87.263055,-29.02072"
       id="path3891"
       inkscape:connector-curvature="0" />
    <path
       style="fill:none;stroke:#000000;stroke-width:1.02816832px;stroke-linecap:butt;stroke-linejoin:miter;stroke-opacity:1"
       d="m 131.41711,806.60103 -29.08099,0.02 0.0202,29.08099"
       id="path3893"
       inkscape:connector-curvature="0" />
    <path
       style="fill:none;stroke:#000000;stroke-width:1.02816832px;stroke-linecap:butt;stroke-linejoin:miter;stroke-opacity:1"
       d="m 291.45295,937.35497 -87.26305,-29.02072 29.14125,87.22286"
       id="path3895"
       inkscape:connector-curvature="0" />
    <path
       style="fill:none;stroke:#000000;stroke-width:1.02816832px;stroke-linecap:butt;stroke-linejoin:miter;stroke-opacity:1"
       d="m 247.82142,922.8446 0.02,29.081 -29.08099,0.02"
       id="path3897"
       inkscape:connector-curvature="0" />
    <path
       style="fill:none;stroke:#000000;stroke-width:1.02816832px;stroke-linecap:butt;stroke-linejoin:miter;stroke-opacity:1"
       d="m 146.02793,908.37444 -29.02072,87.26305"
       id="path3899"
       inkscape:connector-curvature="0" />
    <path
       style="fill:none;stroke:#000000;stroke-width:1.02816832px;stroke-linecap:butt;stroke-linejoin:miter;stroke-opacity:1"
       d="M 58.805067,937.51569 146.02793,908.37444"
       id="path3901"
       inkscape:connector-curvature="0" />
    <path
       style="fill:none;stroke:#000000;stroke-width:1.02816832px;stroke-linecap:butt;stroke-linejoin:miter;stroke-opacity:1"
       d="m 102.41649,922.94507 0.02,29.08099 29.08099,-0.0202"
       id="path3903"
       inkscape:connector-curvature="0" />
    <path
       style="fill:#000000;fill-opacity:1;stroke:#000000;stroke-width:3.11582065;stroke-miterlimit:4;stroke-opacity:1;stroke-dasharray:none"
       d="m 160.85192,751.39558 c 7.47698,-22.49129 13.89061,-40.89345 14.25252,-40.89371 0.3619,-0.001 6.80095,18.39304 14.30902,40.87399 l 13.65103,40.87444 -13.94214,13.96142 -13.94214,13.96142 -13.9614,-13.94215 -13.96142,-13.94213 13.59453,-40.89328 z"
       id="path3905"
       inkscape:connector-curvature="0" />
    <path
       style="fill:#000000;fill-opacity:1;stroke:#000000;stroke-width:3.11582065;stroke-miterlimit:4;stroke-opacity:1;stroke-dasharray:none"
       d="m 248.84027,865.46726 14.1321,-14.15164 41.31401,13.74741 c 22.7227,7.56108 41.15061,13.91103 40.95089,14.11101 -0.1997,0.19999 -18.94756,6.57619 -41.66191,14.16938 l -41.29881,13.80577 -13.78419,-13.76515 -13.78418,-13.76515 14.13209,-14.15163 z"
       id="path3907"
       inkscape:connector-curvature="0" />
    <path
       style="fill:#000000;fill-opacity:1;stroke:#000000;stroke-width:3.11582065;stroke-miterlimit:4;stroke-opacity:1;stroke-dasharray:none"
       d="m 160.84708,1007.5984 -13.46887,-40.52878 13.9421,-13.96137 13.94212,-13.96139 13.78418,13.76516 13.78418,13.76515 -13.74742,41.31393 c -7.56106,22.7227 -13.97692,41.049 -14.25741,40.7249 -0.28051,-0.3239 -6.571,-18.8269 -13.97888,-41.1176 z"
       id="path3909"
       inkscape:connector-curvature="0" />
    <path
       style="fill:#000000;fill-opacity:1;stroke:#000000;stroke-width:3.11582065;stroke-miterlimit:4;stroke-opacity:1;stroke-dasharray:none"
       d="M 46.136193,865.24139 87.431156,851.4369 101.5828,865.56901 115.73445,879.7011 101.9693,893.48528 88.204153,907.26947 46.886293,893.52078 C 24.16148,885.959 5.4048102,879.60869 5.2048315,879.40897 5.0048527,879.20927 23.423975,872.83386 46.136193,865.24139 z"
       id="path3911"
       inkscape:connector-curvature="0" />
    <path
       style="fill:#000000;fill-opacity:1;stroke:#000000;stroke-width:3.11582065;stroke-miterlimit:4;stroke-opacity:1;stroke-dasharray:none"
       d="m 227.27701,813.86206 c 3.65056,3.37706 9.60399,9.32099 13.22989,13.20871 3.62584,3.8878 0.63902,1.12474 -6.63738,-6.14008 -7.27638,-7.26486 -10.24302,-10.44572 -6.59246,-7.06868 z"
       id="path3913"
       inkscape:connector-curvature="0" />
    <path
       style="fill:#000000;fill-opacity:1;stroke:#000000;stroke-width:3.11582065;stroke-miterlimit:4;stroke-opacity:1;stroke-dasharray:none"
       d="m 234.29238,808.01459 12.45331,-0.041 0.0501,12.16021 c 0.0441,10.68382 -0.18227,11.9905 -1.86123,10.76239 -1.05121,-0.76881 -1.66971,-1.88183 -1.37445,-2.47342 0.69929,-1.40098 -15.92939,-18.14762 -16.97759,-17.09797 -0.40364,0.40419 -1.63604,-0.166 -2.73868,-1.26711 -1.85292,-1.85037 -1.06152,-2.00512 10.44854,-2.04305 z"
       id="path3915"
       inkscape:connector-curvature="0" />
    <path
       style="fill:#000000;fill-opacity:1;stroke:#000000;stroke-width:3.11582065;stroke-miterlimit:4;stroke-opacity:1;stroke-dasharray:none"
       d="m 212.46625,828.75045 6.58882,-19.84313 13.13557,13.13633 c 7.22469,7.22486 12.95299,13.28416 12.72976,13.46489 -0.22322,0.18073 -9.09921,3.19881 -19.72443,6.70685 l -19.31859,6.37823 6.58884,-19.84314 0,0 z"
       id="path3917"
       inkscape:connector-curvature="0" />
    <path
       style="fill:#000000;fill-opacity:1;stroke:#000000;stroke-width:3.11582065;stroke-miterlimit:4;stroke-opacity:1;stroke-dasharray:none"
       d="m 250.69002,835.7659 c 0.32413,-0.2818 8.81455,-3.19689 18.86768,-6.4779 l 18.27843,-5.9655 -12.6209,12.71606 -12.6209,12.71605 -6.24676,-6.23815 c -3.43573,-3.43096 -5.98161,-6.46871 -5.65752,-6.75053 z"
       id="path3919"
       inkscape:connector-curvature="0" />
    <path
       style="fill:#000000;fill-opacity:1;stroke:#000000;stroke-width:3.11582065;stroke-miterlimit:4;stroke-opacity:1;stroke-dasharray:none"
       d="m 217.97052,780.3407 11.96456,-11.90368 -5.57352,17.18505 c -3.06544,9.45178 -5.8038,17.45046 -6.08525,17.77488 -0.28148,0.32438 -3.15741,-2.0522 -6.39102,-5.28136 l -5.8793,-5.87118 11.96454,-11.9037 0,0 z"
       id="path3921"
       inkscape:connector-curvature="0" />
    <path
       style="fill:#000000;fill-opacity:1;stroke:#000000;stroke-width:3.11582065;stroke-miterlimit:4;stroke-opacity:1;stroke-dasharray:none"
       d="m 255.65955,915.96184 6.24245,-6.25109 12.24856,12.23165 c 6.7367,6.7274 11.98285,12.22211 11.65809,12.21048 -0.32474,-0.012 -8.64569,-2.7029 -18.49101,-5.98054 l -17.90056,-5.9594 6.24247,-6.2511 z"
       id="path3923"
       inkscape:connector-curvature="0" />
    <path
       style="fill:#000000;fill-opacity:1;stroke:#000000;stroke-width:3.11582065;stroke-miterlimit:4;stroke-opacity:1;stroke-dasharray:none"
       d="m 234.01386,937.63746 12.83274,-12.85048 0.009,12.84161 0.009,12.8416 -12.8416,0.009 -12.84162,0.009 12.83274,-12.85048 z"
       id="path3925"
       inkscape:connector-curvature="0" />
    <path
       style="fill:#000000;fill-opacity:1;stroke:#000000;stroke-width:3.11582065;stroke-miterlimit:4;stroke-opacity:1;stroke-dasharray:none"
       d="m 212.71392,929.58711 -6.42598,-19.27034 19.12115,6.34795 c 10.51665,3.49136 19.12135,6.62346 19.12157,6.96022 7e-5,0.33677 -5.71258,6.15184 -12.69517,12.9224 l -12.6956,12.31009 -6.42597,-19.27032 z"
       id="path3927"
       inkscape:connector-curvature="0" />
    <path
       style="fill:#000000;fill-opacity:1;stroke:#000000;stroke-width:3.11582065;stroke-miterlimit:4;stroke-opacity:1;stroke-dasharray:none"
       d="m 211.62995,960.05231 c 3.431,-3.43572 6.46874,-5.98159 6.75056,-5.6575 0.28186,0.32405 3.19686,8.81454 6.47789,18.86767 l 5.96548,18.27842 -12.71604,-12.62091 -12.71604,-12.62088 6.23812,-6.24676 z"
       id="path3929"
       inkscape:connector-curvature="0" />
    <path
       style="fill:#000000;fill-opacity:1;stroke:#000000;stroke-width:3.11582065;stroke-miterlimit:4;stroke-opacity:1;stroke-dasharray:none"
       d="m 125.88936,972.77259 6.05948,-18.16757 6.24391,6.2353 6.24391,6.23528 -12.10933,12.12607 c -6.66013,6.66933 -12.19665,12.03886 -12.30338,11.93227 -0.10674,-0.10657 2.5327,-8.3692 5.86541,-18.36135 z"
       id="path3931"
       inkscape:connector-curvature="0" />
    <path
       style="fill:#000000;fill-opacity:1;stroke:#000000;stroke-width:3.11582065;stroke-miterlimit:4;stroke-opacity:1;stroke-dasharray:none"
       d="m 103.65708,938.09473 0.0263,-11.71606 12.09159,12.0749 12.09159,12.07489 -11.71602,0.0426 c -6.4438,0.0233 -11.89688,-0.13808 -12.11794,-0.35882 -0.22107,-0.22074 -0.39008,-5.6736 -0.37559,-12.11744 z"
       id="path3933"
       inkscape:connector-curvature="0" />
    <path
       style="fill:#000000;fill-opacity:1;stroke:#000000;stroke-width:3.11582065;stroke-miterlimit:4;stroke-opacity:1;stroke-dasharray:none"
       d="m 75.961187,922.54641 11.887158,-11.98099 5.879293,5.87119 c 3.233622,3.22915 5.614202,6.10184 5.290182,6.38373 -0.32405,0.28186 -8.318909,3.03131 -17.76645,6.10979 l -17.177331,5.59727 11.887138,-11.981 z"
       id="path3935"
       inkscape:connector-curvature="0" />
    <path
       style="fill:#000000;fill-opacity:1;stroke:#000000;stroke-width:3.11582065;stroke-miterlimit:4;stroke-opacity:1;stroke-dasharray:none"
       d="m 124.10198,917.06241 20.09531,-6.70341 -6.35152,19.32738 c -3.49335,10.63005 -6.5817,19.59291 -6.86302,19.91744 -0.28135,0.32453 -6.46601,-5.35624 -13.74378,-12.62395 l -13.23232,-13.21403 20.09533,-6.70343 z"
       id="path3937"
       inkscape:connector-curvature="0" />
    <path
       style="fill:#000000;fill-opacity:1;stroke:#000000;stroke-width:3.11582065;stroke-miterlimit:4;stroke-opacity:1;stroke-dasharray:none"
       d="m 117.53063,822.04898 c 7.06377,-7.07355 13.00613,-12.69829 13.20527,-12.49944 0.19912,0.19886 3.26785,9.03657 6.8194,19.63939 l 6.45734,19.27785 -19.07255,-6.26693 c -10.48989,-3.44682 -19.33806,-6.49711 -19.66262,-6.77843 -0.32451,-0.28132 5.18939,-6.29891 12.25316,-13.37244 z"
       id="path3939"
       inkscape:connector-curvature="0" />
    <path
       style="fill:#000000;fill-opacity:1;stroke:#000000;stroke-width:3.11582065;stroke-miterlimit:4;stroke-opacity:1;stroke-dasharray:none"
       d="m 103.57476,820.19018 0.0232,-12.11773 12.45337,0.0239 12.45335,0.0239 -12.27664,12.29357 c -6.75212,6.76146 -12.36657,12.20372 -12.47654,12.09389 -0.10998,-0.10982 -0.18952,-5.65266 -0.17672,-12.31739 l 0,0 z"
       id="path3941"
       inkscape:connector-curvature="0" />
    <path
       style="fill:#000000;fill-opacity:1;stroke:#000000;stroke-width:3.11582065;stroke-miterlimit:4;stroke-opacity:1;stroke-dasharray:none"
       d="m 125.58423,786.05751 -5.96549,-18.27842 12.3486,12.25394 12.34858,12.25396 -6.23815,6.24676 c -3.43095,3.43572 -6.30335,6.14672 -6.38307,6.02447 -0.0798,-0.12232 -2.82942,-8.4476 -6.11044,-18.50074 z"
       id="path3943"
       inkscape:connector-curvature="0" />
    <path
       style="fill:#000000;fill-opacity:1;stroke:#000000;stroke-width:3.11582065;stroke-miterlimit:4;stroke-opacity:1;stroke-dasharray:none"
       d="m 63.899055,824.43322 c 0.324737,0.012 8.645703,2.70289 18.491012,5.98055 l 17.900553,5.95939 -6.242451,6.25109 -6.242452,6.25109 -12.248549,-12.23165 c -6.736713,-6.7274 -11.98286,-12.2221 -11.658113,-12.21047 z"
       id="path3945"
       inkscape:connector-curvature="0" />
    <path
       style="fill:#000000;fill-opacity:1;stroke:#000000;stroke-width:3.11582065;stroke-miterlimit:4;stroke-opacity:1;stroke-dasharray:none"
       d="m 191.00063,864.59377 12.84322,-12.86098 13.03683,13.01883 13.03684,13.01883 -25.68845,0.0335 c -14.12864,0.0184 -25.77466,-0.0526 -25.88006,-0.15786 -0.10538,-0.10524 5.58786,-5.97877 12.65162,-13.05232 z"
       id="path3947"
       inkscape:connector-curvature="0" />
    <path
       style="fill:#000000;fill-opacity:1;stroke:#000000;stroke-width:3.11582065;stroke-miterlimit:4;stroke-opacity:1;stroke-dasharray:none"
       d="m 176.34246,907.93386 -0.003,-26.42331 13.40451,13.386 13.40451,13.38599 -13.21017,13.22844 c -7.26559,7.27565 -13.29629,13.14243 -13.40155,13.03732 -0.10527,-0.10512 -0.19271,-12.08162 -0.19433,-26.61444 z"
       id="path3949"
       inkscape:connector-curvature="0" />
    <path
       style="fill:#000000;fill-opacity:1;stroke:#000000;stroke-width:3.11582065;stroke-miterlimit:4;stroke-opacity:1;stroke-dasharray:none"
       d="m 145.47864,880.78217 c 14.12865,-0.0184 25.77467,0.0526 25.88005,0.15784 0.10538,0.10523 -5.58783,5.97879 -12.6516,13.05233 l -12.84323,12.86097 -13.03684,-13.01885 -13.03684,-13.01882 25.68846,-0.0335 z"
       id="path3951"
       inkscape:connector-curvature="0" />
    <path
       style="fill:#000000;fill-opacity:1;stroke:#000000;stroke-width:3.11582065;stroke-miterlimit:4;stroke-opacity:1;stroke-dasharray:none"
       d="m 161.04684,837.2657 13.01883,-13.03683 0.0335,25.68845 c 0.0184,14.12865 -0.0526,25.77468 -0.15785,25.88005 -0.10523,0.1054 -5.97878,-5.58783 -13.05231,-12.6516 l -12.86099,-12.84323 13.01884,-13.03684 z"
       id="path3953"
       inkscape:connector-curvature="0" />
    <path
       style="fill:#000000;fill-opacity:1;stroke:#000000;stroke-width:0.77895516;stroke-miterlimit:4;stroke-opacity:1;stroke-dasharray:none"
       d="m 221.01762,807.19157 c 0.96007,-0.0306 1.19894,0.27988 0.64332,0.83626 -0.27772,0.27811 -0.48452,0.2284 -0.93933,-0.22578 l -0.58321,-0.58242 0.87922,-0.0281 z"
       id="path3959"
       inkscape:connector-curvature="0" />
    <use
       id="use3963"
       xlink:href="#path3959"
       x="0"
       y="0"
       width="744.09448"
       height="1052.3622"
       transform="translate(1.2593314,-0.2625017)" />
    <use
       id="use3965"
       xlink:href="#path3959"
       x="0"
       y="0"
       width="744.09448"
       height="1052.3622"
       transform="translate(1.8186859,-0.3390591)" />
    <use
       id="use3971"
       xlink:href="#path3959"
       x="0"
       y="0"
       width="744.09448"
       height="1052.3622"
       transform="translate(24.753307,25.424989)" />
    <use
       id="use3973"
       xlink:href="#path3959"
       x="0"
       y="0"
       width="744.09448"
       height="1052.3622"
       transform="translate(25.271915,26.102274)" />
    <use
       id="use3975"
       xlink:href="#path3959"
       x="0"
       y="0"
       width="744.09448"
       height="1052.3622"
       transform="translate(25.713431,25.282793)" />
    <use
       id="use3977"
       xlink:href="#path3959"
       x="0"
       y="0"
       width="744.09448"
       height="1052.3622"
       transform="translate(25.301485,24.832199)" />
    <use
       id="use3979"
       xlink:href="#path3959"
       x="0"
       y="0"
       width="744.09448"
       height="1052.3622"
       transform="translate(28.597104,28.952912)" />
    <use
       id="use3981"
       xlink:href="#path3959"
       x="0"
       y="0"
       width="744.09448"
       height="1052.3622"
       transform="translate(28.261109,27.82713)" />
    <use
       id="use3983"
       xlink:href="#path3959"
       x="0"
       y="0"
       width="744.09448"
       height="1052.3622"
       transform="translate(-3.00621,-2.5504127)" />
    <use
       id="use3985"
       xlink:href="#path3959"
       x="0"
       y="0"
       width="744.09448"
       height="1052.3622"
       transform="translate(0.3461123,1.0971379)" />
    <use
       id="use3987"
       xlink:href="#path3959"
       x="0"
       y="0"
       width="744.09448"
       height="1052.3622"
       transform="translate(0.5408782,1.7188199)" />
    <use
       id="use3989"
       xlink:href="#path3959"
       x="0"
       y="0"
       width="744.09448"
       height="1052.3622"
       transform="translate(0.3552425,1.3569355)" />
    <use
       id="use3993"
       xlink:href="#path3959"
       x="0"
       y="0"
       width="744.09448"
       height="1052.3622"
       transform="translate(9.8114301,184.54095)" />
    <use
       id="use3997"
       xlink:href="#path3959"
       x="0"
       y="0"
       width="744.09448"
       height="1052.3622"
       transform="translate(10.47062,185.64642)" />
    <use
       id="use4003"
       xlink:href="#path3959"
       x="0"
       y="0"
       width="744.09448"
       height="1052.3622"
       transform="translate(67.983059,128.36249)" />
    <use
       id="use4029"
       xlink:href="#path3959"
       x="0"
       y="0"
       width="744.09448"
       height="1052.3622"
       transform="translate(-157.91068,127.48532)" />
    <use
       id="use4031"
       xlink:href="#path3959"
       x="0"
       y="0"
       width="744.09448"
       height="1052.3622"
       transform="translate(-157.4084,126.31348)" />
    <path
       style="fill:#000000;fill-opacity:1;stroke:#000000;stroke-width:0.27540222;stroke-miterlimit:4;stroke-opacity:1;stroke-dasharray:none"
       d="m 100.53581,922.19027 -0.15949,-0.53719 0.49461,0.49392 c 0.27202,0.27164 0.48137,0.50715 0.46525,0.5233 -0.0991,0.0992 -0.52145,0.19707 -0.57574,0.13344 -0.036,-0.0417 -0.13689,-0.31806 -0.2246,-0.61349 l 0,0 z"
       id="path4039"
       inkscape:connector-curvature="0" />
    <path
       style="fill:#000000;fill-opacity:1;stroke:#000000;stroke-width:0.27540222;stroke-miterlimit:4;stroke-opacity:1;stroke-dasharray:none"
       d="m 58.923091,937.72983 c -0.01912,-0.088 -0.129303,-0.25539 -0.24491,-0.37185 l -0.210384,-0.21155 1.84875,-1.8513 c 1.677014,-1.67935 1.838776,-1.86126 1.741234,-1.95864 -0.09994,-0.0999 -0.09192,-0.10813 0.11863,-0.1188 0.208728,-0.0106 1.16986,-0.95649 12.497293,-12.29959 6.749154,-6.75848 12.256559,-12.30274 12.238648,-12.32061 -0.01789,-0.0179 -9.718093,-3.25354 -21.556002,-7.19039 -11.837919,-3.93684 -21.538111,-7.1725 -21.556001,-7.19038 -0.01789,-0.0179 11.45398,-11.53487 25.493064,-25.59336 l 25.525584,-25.56088 0.227349,0.22703 0.227349,0.22704 -3.373133,3.37781 -3.373153,3.37781 14.307191,14.28742 14.30718,14.28743 6.75047,-0.005 6.75048,-0.005 11.41655,11.4008 11.41658,11.4008 -3.53528,3.54016 -3.53527,3.54016 -7.17432,21.57226 -7.17431,21.57224 6.99927,6.98961 6.99927,6.9896 14.31941,-14.33922 14.31941,-14.3392 -0.004,-7.17288 -0.004,-7.17287 4.01092,4.00538 4.01093,4.00539 -0.40761,0.4038 c -1.94842,1.9271 -4.66418,4.39927 -5.57666,5.07654 -0.56583,0.42 -1.05639,0.79125 -1.09011,0.825 -0.0383,0.0382 4.63388,4.75013 12.44305,12.54852 l 12.50438,12.48711 -21.14699,21.17622 c -11.63085,11.64693 -21.1664,21.15676 -21.19012,21.13316 -0.0237,-0.024 -2.79045,-8.3025 -6.14824,-18.39733 l -6.10507,-18.3542 -5.43581,5.4346 c -5.20526,5.20373 -14.30101,14.16347 -20.33366,20.02796 l -2.84111,2.76197 -0.26262,-0.20646 c -0.14442,-0.11356 -0.32607,-0.23059 -0.40356,-0.26018 -0.11099,-0.0422 1.3801,-4.62718 7.00683,-21.5453 l 7.1478,-21.49164 -14.43241,0.009 -14.4324,0.009 -0.009,-14.28061 c -0.006,-9.77699 -0.0521,-14.32011 -0.14434,-14.40582 -0.11044,-0.10303 -3.92413,1.14115 -21.358555,6.96724 -11.673135,3.90081 -21.293254,7.10342 -21.378026,7.11687 -0.106868,0.0169 -0.164847,-0.0247 -0.188926,-0.13563 z m 2.831709,-1.68011 0.997735,-0.33342 -0.357865,-0.35738 -0.357854,-0.35736 -0.691926,0.69287 c -0.380566,0.3811 -0.668495,0.69197 -0.639881,0.69081 0.02858,-10e-4 0.501047,-0.15212 1.049812,-0.3355 z m 1.116447,-1.70686 c 0.07413,-0.0331 0.106405,-0.0883 0.07166,-0.12294 -0.03465,-0.0345 -0.106744,-0.0189 -0.16024,0.0346 -0.05357,0.0536 -0.08585,0.10891 -0.07166,0.12294 0.01409,0.014 0.08626,-0.002 0.16024,-0.0347 z M 100.8889,922.9783 c 0.24588,-0.0921 0.2475,-0.0974 0.0351,-0.11164 -0.12266,-0.008 -0.24955,-0.0715 -0.28214,-0.14023 -0.0512,-0.10819 -0.0609,-0.0985 -0.0709,0.0708 -0.016,0.27043 0.0218,0.29194 0.31796,0.18091 l 0,0 z m -0.49774,-1.3104 c 0.0357,-0.0358 -0.0624,-0.18613 -0.21767,-0.33419 -0.24033,-0.22838 -0.26587,-0.23702 -0.17208,-0.055 0.159,0.30831 0.31499,0.46408 0.38975,0.38922 z m 23.44544,-6.3614 21.27022,-7.10652 -13.9334,-13.91419 -13.93343,-13.91418 -14.17368,14.19329 -14.173675,14.19325 6.836878,6.82745 6.836877,6.82743 21.27021,-7.10653 0,0 z"
       id="path4041"
       inkscape:connector-curvature="0" />
    <path
       style="fill:#000000;fill-opacity:1;stroke:#000000;stroke-width:0.38947758;stroke-miterlimit:4;stroke-opacity:1;stroke-dasharray:none"
       d="m 118.57243,766.35139 -0.33111,-1.04641 0.86559,0.85569 0.86558,0.85565 -0.34408,0.22977 c -0.18923,0.12635 -0.38019,0.26592 -0.42434,0.31013 -0.14489,0.14509 -0.29615,-0.1432 -0.63197,-1.20445 z"
       id="path4043"
       inkscape:connector-curvature="0" />
    <path
       style="fill:#000000;fill-opacity:1;stroke:#000000;stroke-width:0.77895516;stroke-miterlimit:4;stroke-opacity:1;stroke-dasharray:none"
       d="m 230.54785,766.39129 c 0.6048,-0.60563 1.09667,-1.03532 1.09295,-0.95493 -0.004,0.0804 -0.2177,0.78455 -0.47565,1.56477 l -0.46896,1.41855 -0.62399,-0.46361 -0.62401,-0.4636 1.09966,-1.10117 z"
       id="path4045"
       inkscape:connector-curvature="0" />
    <path
       style="fill:#000000;fill-opacity:1;stroke:#000000;stroke-width:0.77895516;stroke-miterlimit:4;stroke-opacity:1;stroke-dasharray:none"
       d="m 288.75509,822.80814 c 0.25227,-0.25263 0.39717,-0.31434 0.32201,-0.13712 -0.0751,0.17724 -0.28154,0.38394 -0.45867,0.45932 -0.17714,0.0754 -0.11564,-0.0696 0.13666,-0.3222 z"
       id="path4047"
       inkscape:connector-curvature="0" />
    <path
       style="fill:#000000;fill-opacity:1;stroke:#000000;stroke-width:0.19473879;stroke-miterlimit:4;stroke-opacity:1;stroke-dasharray:none"
       d="m 288.00131,822.75064 c 0.0322,-0.0308 0.14008,-0.078 0.2393,-0.10505 l 0.1803,-0.0494 -0.17057,0.1737 c -0.12157,0.12466 -0.18996,0.15429 -0.23929,0.10504 -0.0378,-0.0379 -0.0425,-0.0939 -0.0103,-0.12461 z"
       id="path4049"
       inkscape:connector-curvature="0" />
    <path
       style="fill:#000000;fill-opacity:1;stroke:#000000;stroke-width:0.53571427;stroke-miterlimit:4;stroke-opacity:1;stroke-dasharray:none"
       d=""
       id="path4051"
       inkscape:connector-curvature="0" />
    <path
       style="fill:#000000;fill-opacity:1;stroke:#000000;stroke-width:0.53571427;stroke-miterlimit:4;stroke-opacity:1;stroke-dasharray:none"
       d=""
       id="path4053"
       inkscape:connector-curvature="0" />
    <path
       style="fill:#d45500;fill-opacity:1;stroke:#000000;stroke-width:0.55080444;stroke-miterlimit:4;stroke-opacity:1;stroke-dasharray:none"
       d="m 61.836498,935.56542 c 0.107022,-0.10718 0.251202,-0.13836 0.320429,-0.0693 0.0692,0.0691 0.0041,0.17977 -0.143532,0.24587 -0.148129,0.0661 -0.29236,0.0973 -0.32045,0.0693 -0.02807,-0.0281 0.0366,-0.13871 0.143553,-0.24588 z"
       id="path4055"
       inkscape:connector-curvature="0" />
  </g>
</svg>
