<?xml version="1.0" encoding="UTF-8" standalone="no"?>
<!-- Created with Inkscape (http://www.inkscape.org/) -->

<svg
   xmlns:dc="http://purl.org/dc/elements/1.1/"
   xmlns:cc="http://creativecommons.org/ns#"
   xmlns:rdf="http://www.w3.org/1999/02/22-rdf-syntax-ns#"
   xmlns:svg="http://www.w3.org/2000/svg"
   xmlns="http://www.w3.org/2000/svg"
   xmlns:xlink="http://www.w3.org/1999/xlink"
   xmlns:sodipodi="http://sodipodi.sourceforge.net/DTD/sodipodi-0.dtd"
   xmlns:inkscape="http://www.inkscape.org/namespaces/inkscape"
   width="16"
   height="16"
   id="svg2"
   version="1.1"
   inkscape:version="0.48.3.1 r9886"
   sodipodi:docname="favicon16x16.png">
  <defs
     id="defs4" />
  <sodipodi:namedview
     id="base"
     pagecolor="#ffffff"
     bordercolor="#666666"
     borderopacity="1.0"
     inkscape:pageopacity="0.0"
     inkscape:pageshadow="2"
     inkscape:zoom="7.9195959"
     inkscape:cx="28.408537"
     inkscape:cy="26.988889"
     inkscape:document-units="px"
     inkscape:current-layer="layer1"
     showgrid="false"
     inkscape:window-width="1280"
     inkscape:window-height="750"
     inkscape:window-x="0"
     inkscape:window-y="0"
     inkscape:window-maximized="1">
    <inkscape:grid
       type="xygrid"
       id="grid2985"
       empspacing="5"
       visible="true"
       enabled="true"
       snapvisiblegridlinesonly="true" />
  </sodipodi:namedview>
  <metadata
     id="metadata7">
    <rdf:RDF>
      <cc:Work
         rdf:about="">
        <dc:format>image/svg+xml</dc:format>
        <dc:type
           rdf:resource="http://purl.org/dc/dcmitype/StillImage" />
        <dc:title></dc:title>
      </cc:Work>
    </rdf:RDF>
  </metadata>
  <g
     inkscape:label="Layer 1"
     inkscape:groupmode="layer"
     id="layer1"
     transform="translate(0,-1036.3622)">
    <rect
       style="fill:#ffffff;fill-opacity:1;stroke:none"
       id="rect3066"
       width="15.922471"
       height="15.874223"
       x="0.035072215"
       y="1036.3621" />
    <path
       style="fill:#000000;stroke:#000000;stroke-width:0.04670331px;stroke-linecap:butt;stroke-linejoin:miter;stroke-opacity:1"
       d="m 10.646297,1044.3841 -5.2918981,0"
       id="path3777"
       inkscape:connector-curvature="0" />
    <path
       style="fill:none;stroke:#000000;stroke-width:0.04670331px;stroke-linecap:butt;stroke-linejoin:miter;stroke-opacity:1"
       d="m 7.9985199,1041.7481 0.00365,5.2757"
       id="path3779"
       inkscape:connector-curvature="0" />
    <path
       style="fill:none;stroke:#000000;stroke-width:0.04670331px;stroke-linecap:butt;stroke-linejoin:miter;stroke-opacity:1"
       d="m 9.3224087,1043.066 -2.6441209,2.6398"
       id="path3781"
       inkscape:connector-curvature="0" />
    <path
       style="fill:none;stroke:#000000;stroke-width:0.04670331px;stroke-linecap:butt;stroke-linejoin:miter;stroke-opacity:1"
       d="m 6.6764594,1043.0679 2.6477777,2.6361"
       id="path3783"
       inkscape:connector-curvature="0" />
    <path
       style="fill:none;stroke:#000000;stroke-width:0.04670331px;stroke-linecap:butt;stroke-linejoin:miter;stroke-opacity:1"
       d="m 10.646297,1044.3841 2.644122,-2.6397"
       id="path3785"
       inkscape:connector-curvature="0" />
    <path
       style="fill:none;stroke:#000000;stroke-width:0.04670331px;stroke-linecap:butt;stroke-linejoin:miter;stroke-opacity:1"
       d="m 7.9985199,1041.7481 2.6441211,-2.6399"
       id="path3787"
       inkscape:connector-curvature="0" />
    <path
       style="fill:none;stroke:#000000;stroke-width:0.04670331px;stroke-linecap:butt;stroke-linejoin:miter;stroke-opacity:1"
       d="m 2.7102778,1047.0274 2.6441211,-2.6397"
       id="path3787-0"
       inkscape:connector-curvature="0" />
    <path
       style="fill:none;stroke:#000000;stroke-width:0.04670331px;stroke-linecap:butt;stroke-linejoin:miter;stroke-opacity:1"
       d="m 5.3580547,1049.6637 2.6441219,-2.6399"
       id="path3787-5"
       inkscape:connector-curvature="0" />
    <path
       style="fill:none;stroke:#000000;stroke-width:0.04670331px;stroke-linecap:butt;stroke-linejoin:miter;stroke-opacity:1"
       d="m 10.646297,1044.3841 2.647779,2.6361"
       id="path3814"
       inkscape:connector-curvature="0" />
    <path
       style="fill:none;stroke:#000000;stroke-width:0.04670331px;stroke-linecap:butt;stroke-linejoin:miter;stroke-opacity:1"
       d="m 8.0021766,1047.0238 2.6477764,2.6362"
       id="path3814-2"
       inkscape:connector-curvature="0" />
    <path
       style="fill:none;stroke:#000000;stroke-width:0.04670331px;stroke-linecap:butt;stroke-linejoin:miter;stroke-opacity:1"
       d="m 2.7066209,1041.7516 2.647778,2.6361"
       id="path3814-8"
       inkscape:connector-curvature="0" />
    <path
       style="fill:none;stroke:#000000;stroke-width:0.04670331px;stroke-linecap:butt;stroke-linejoin:miter;stroke-opacity:1"
       d="m 5.3507431,1039.1118 2.6477768,2.6363"
       id="path3814-5"
       inkscape:connector-curvature="0" />
    <path
       style="fill:none;stroke:#000000;stroke-width:0.04670331px;stroke-linecap:butt;stroke-linejoin:miter;stroke-opacity:1"
       d="m 11.968358,1043.0642 3.969839,1.3162"
       id="path3848"
       inkscape:connector-curvature="0" />
    <path
       style="fill:none;stroke:#000000;stroke-width:0.04670331px;stroke-linecap:butt;stroke-linejoin:miter;stroke-opacity:1"
       d="m 11.970186,1045.7021 3.968011,-1.3217"
       id="path3850"
       inkscape:connector-curvature="0" />
    <path
       style="fill:none;stroke:#000000;stroke-width:0.04670331px;stroke-linecap:butt;stroke-linejoin:miter;stroke-opacity:1"
       d="m 9.3205803,1040.4282 -1.3257167,-3.9561"
       id="path3871"
       inkscape:connector-curvature="0" />
    <path
       style="fill:none;stroke:#000000;stroke-width:0.04670331px;stroke-linecap:butt;stroke-linejoin:miter;stroke-opacity:1"
       d="m 6.674631,1040.43 1.3202326,-3.9579"
       id="path3873"
       inkscape:connector-curvature="0" />
    <path
       style="fill:none;stroke:#000000;stroke-width:0.04670331px;stroke-linecap:butt;stroke-linejoin:miter;stroke-opacity:1"
       d="m 9.3260654,1048.3418 -1.3202325,3.9579 -1.3257168,-3.956"
       id="path3875"
       inkscape:connector-curvature="0" />
    <path
       style="fill:none;stroke:#000000;stroke-width:0.04670331px;stroke-linecap:butt;stroke-linejoin:miter;stroke-opacity:1"
       d="m 4.0305099,1043.0697 -3.9680099,1.3217 3.9698383,1.3161"
       id="path3877"
       inkscape:connector-curvature="0" />
    <path
       style="fill:none;stroke:#000000;stroke-width:0.04670331px;stroke-linecap:butt;stroke-linejoin:miter;stroke-opacity:1"
       d="m 9.3205803,1040.4282 2.6477777,2.636"
       id="path3879"
       inkscape:connector-curvature="0" />
    <path
       style="fill:none;stroke:#000000;stroke-width:0.04670331px;stroke-linecap:butt;stroke-linejoin:miter;stroke-opacity:1"
       d="m 11.970186,1045.7021 -2.6441206,2.6397"
       id="path3881"
       inkscape:connector-curvature="0" />
    <path
       style="fill:none;stroke:#000000;stroke-width:0.04670331px;stroke-linecap:butt;stroke-linejoin:miter;stroke-opacity:1"
       d="m 6.674631,1040.43 -2.6441211,2.6397"
       id="path3883"
       inkscape:connector-curvature="0" />
    <path
       style="fill:none;stroke:#000000;stroke-width:0.04670331px;stroke-linecap:butt;stroke-linejoin:miter;stroke-opacity:1"
       d="m 4.0323383,1045.7075 2.6477778,2.6362"
       id="path3885"
       inkscape:connector-curvature="0" />
    <path
       style="fill:none;stroke:#000000;stroke-width:0.04670331px;stroke-linecap:butt;stroke-linejoin:miter;stroke-opacity:1"
       d="m 13.290419,1041.7444 -3.9680103,1.3216 1.3202323,-3.9578"
       id="path3887"
       inkscape:connector-curvature="0" />
    <path
       style="fill:none;stroke:#000000;stroke-width:0.04670331px;stroke-linecap:butt;stroke-linejoin:miter;stroke-opacity:1"
       d="m 9.9825252,1041.0871 1.3229748,-9e-4 9.1e-4,1.319"
       id="path3889"
       inkscape:connector-curvature="0" />
    <path
       style="fill:none;stroke:#000000;stroke-width:0.04670331px;stroke-linecap:butt;stroke-linejoin:miter;stroke-opacity:1"
       d="m 5.3507431,1039.1118 1.3257163,3.9561 -3.9698385,-1.3163"
       id="path3891"
       inkscape:connector-curvature="0" />
    <path
       style="fill:none;stroke:#000000;stroke-width:0.04670331px;stroke-linecap:butt;stroke-linejoin:miter;stroke-opacity:1"
       d="m 6.0136011,1041.0899 -1.322975,9e-4 9.19e-4,1.319"
       id="path3893"
       inkscape:connector-curvature="0" />
    <path
       style="fill:none;stroke:#000000;stroke-width:0.04670331px;stroke-linecap:butt;stroke-linejoin:miter;stroke-opacity:1"
       d="m 13.294076,1047.0202 -3.9698389,-1.3162 1.3257159,3.956"
       id="path3895"
       inkscape:connector-curvature="0" />
    <path
       style="fill:none;stroke:#000000;stroke-width:0.04670331px;stroke-linecap:butt;stroke-linejoin:miter;stroke-opacity:1"
       d="m 11.309156,1046.362 9.1e-4,1.319 -1.3229751,9e-4"
       id="path3897"
       inkscape:connector-curvature="0" />
    <path
       style="fill:none;stroke:#000000;stroke-width:0.04670331px;stroke-linecap:butt;stroke-linejoin:miter;stroke-opacity:1"
       d="m 6.6782878,1045.7058 -1.3202331,3.9579"
       id="path3899"
       inkscape:connector-curvature="0" />
    <path
       style="fill:none;stroke:#000000;stroke-width:0.04670331px;stroke-linecap:butt;stroke-linejoin:miter;stroke-opacity:1"
       d="m 2.7102778,1047.0274 3.96801,-1.3216"
       id="path3901"
       inkscape:connector-curvature="0" />
    <path
       style="fill:none;stroke:#000000;stroke-width:0.04670331px;stroke-linecap:butt;stroke-linejoin:miter;stroke-opacity:1"
       d="m 4.6942824,1046.3666 9.099e-4,1.319 1.3229748,-9e-4"
       id="path3903"
       inkscape:connector-curvature="0" />
    <path
       style="fill:#000000;fill-opacity:1;stroke:#000000;stroke-width:0.14153242;stroke-miterlimit:4;stroke-opacity:1;stroke-dasharray:none"
       d="m 7.3526721,1038.586 c 0.3401486,-1.0201 0.6319225,-1.8547 0.6483867,-1.8547 0.016464,0 0.3093941,0.8342 0.650957,1.8538 l 0.6210233,1.8539 -0.6342666,0.6332 -0.6342667,0.6333 -0.6351428,-0.6324 -0.6351438,-0.6323 0.6184529,-1.8548 z"
       id="path3905"
       inkscape:connector-curvature="0" />
    <path
       style="fill:#000000;fill-opacity:1;stroke:#000000;stroke-width:0.14153242;stroke-miterlimit:4;stroke-opacity:1;stroke-dasharray:none"
       d="m 11.355506,1043.7597 0.642909,-0.6418 1.879488,0.6235 c 1.03372,0.3429 1.872056,0.6309 1.86297,0.64 -0.0091,0.01 -0.861977,0.2982 -1.895316,0.6427 l -1.878797,0.6261 -0.62708,-0.6243 -0.627081,-0.6243 0.642907,-0.6419 z"
       id="path3907"
       inkscape:connector-curvature="0" />
    <path
       style="fill:#000000;fill-opacity:1;stroke:#000000;stroke-width:0.14153242;stroke-miterlimit:4;stroke-opacity:1;stroke-dasharray:none"
       d="m 7.352452,1050.2061 -0.6127363,-1.8383 0.6342649,-0.6331 0.6342657,-0.6333 0.6270805,0.6243 0.6270806,0.6244 -0.6254083,1.8739 c -0.3439736,1.0304 -0.6358488,1.8617 -0.648609,1.847 -0.012761,-0.015 -0.2989331,-0.8539 -0.6359381,-1.8649 z"
       id="path3909"
       inkscape:connector-curvature="0" />
    <path
       style="fill:#000000;fill-opacity:1;stroke:#000000;stroke-width:0.14153242;stroke-miterlimit:4;stroke-opacity:1;stroke-dasharray:none"
       d="m 2.1339355,1043.7495 1.8786225,-0.6261 0.6437975,0.641 0.6437978,0.6409 -0.6262148,0.6251 -0.6262148,0.6252 -1.879664,-0.6235 c -1.0338148,-0.3429 -1.88710768,-0.631 -1.89620526,-0.6401 -0.009098,-0.01 0.82883936,-0.2982 1.86208106,-0.6425 z"
       id="path3911"
       inkscape:connector-curvature="0" />
    <path
       style="fill:#000000;fill-opacity:1;stroke:#000000;stroke-width:0.14153242;stroke-miterlimit:4;stroke-opacity:1;stroke-dasharray:none"
       d="m 10.374534,1041.4192 c 0.166073,0.1532 0.436912,0.4227 0.601865,0.5991 0.164949,0.1763 0.02908,0.051 -0.301953,-0.2785 -0.331024,-0.3295 -0.465984,-0.4737 -0.29991,-0.3206 z"
       id="path3913"
       inkscape:connector-curvature="0" />
    <path
       style="fill:#000000;fill-opacity:1;stroke:#000000;stroke-width:0.14153242;stroke-miterlimit:4;stroke-opacity:1;stroke-dasharray:none"
       d="m 10.693682,1041.154 0.566536,0 0.0023,0.5516 c 0.002,0.4846 -0.0083,0.5438 -0.08467,0.488 -0.04782,-0.035 -0.07596,-0.085 -0.06253,-0.1121 0.03181,-0.063 -0.724672,-0.8231 -0.772358,-0.7755 -0.01836,0.018 -0.07442,-0.01 -0.12459,-0.057 -0.08429,-0.084 -0.04829,-0.091 0.475333,-0.092 z"
       id="path3915"
       inkscape:connector-curvature="0" />
    <path
       style="fill:#000000;fill-opacity:1;stroke:#000000;stroke-width:0.14153242;stroke-miterlimit:4;stroke-opacity:1;stroke-dasharray:none"
       d="m 9.7007513,1042.0945 0.2997437,-0.9 0.597573,0.5958 c 0.328672,0.3277 0.589268,0.6025 0.579112,0.6106 -0.01015,0.01 -0.413947,0.1451 -0.897319,0.3043 l -0.8788557,0.2893 0.2997446,-0.9 0,0 z"
       id="path3917"
       inkscape:connector-curvature="0" />
    <path
       style="fill:#000000;fill-opacity:1;stroke:#000000;stroke-width:0.14153242;stroke-miterlimit:4;stroke-opacity:1;stroke-dasharray:none"
       d="m 11.439657,1042.4126 c 0.01474,-0.013 0.400997,-0.1449 0.858342,-0.2938 l 0.831537,-0.2705 -0.57416,0.5768 -0.574159,0.5766 -0.284182,-0.2829 c -0.156301,-0.1556 -0.272121,-0.2933 -0.257377,-0.3062 z"
       id="path3919"
       inkscape:connector-curvature="0" />
    <path
       style="fill:#000000;fill-opacity:1;stroke:#000000;stroke-width:0.14153242;stroke-miterlimit:4;stroke-opacity:1;stroke-dasharray:none"
       d="m 9.9511557,1039.8988 0.5443003,-0.5399 -0.253555,0.7795 c -0.139455,0.4287 -0.2640302,0.7914 -0.2768341,0.8062 -0.012805,0.015 -0.1436393,-0.093 -0.2907452,-0.2395 l -0.2674656,-0.2663 0.5443,-0.54 0,0 z"
       id="path3921"
       inkscape:connector-curvature="0" />
    <path
       style="fill:#000000;fill-opacity:1;stroke:#000000;stroke-width:0.14153242;stroke-miterlimit:4;stroke-opacity:1;stroke-dasharray:none"
       d="m 11.665734,1046.0499 0.283987,-0.2835 0.55722,0.5547 c 0.306472,0.3052 0.545134,0.5544 0.530359,0.5539 -0.01477,-6e-4 -0.393316,-0.1227 -0.841208,-0.2713 l -0.814344,-0.2703 0.283986,-0.2835 z"
       id="path3923"
       inkscape:connector-curvature="0" />
    <path
       style="fill:#000000;fill-opacity:1;stroke:#000000;stroke-width:0.14153242;stroke-miterlimit:4;stroke-opacity:1;stroke-dasharray:none"
       d="m 10.681012,1047.033 0.583796,-0.5829 4.1e-4,0.5825 4.1e-4,0.5824 -0.5842,4e-4 -0.584201,4e-4 0.583796,-0.5828 z"
       id="path3925"
       inkscape:connector-curvature="0" />
    <path
       style="fill:#000000;fill-opacity:1;stroke:#000000;stroke-width:0.14153242;stroke-miterlimit:4;stroke-opacity:1;stroke-dasharray:none"
       d="m 9.7120184,1046.6679 -0.2923357,-0.874 0.8698733,0.2879 c 0.478433,0.1584 0.869884,0.3004 0.869894,0.3156 3e-6,0.015 -0.259881,0.2791 -0.577538,0.5861 l -0.577558,0.5584 -0.2923356,-0.874 z"
       id="path3927"
       inkscape:connector-curvature="0" />
    <path
       style="fill:#000000;fill-opacity:1;stroke:#000000;stroke-width:0.14153242;stroke-miterlimit:4;stroke-opacity:1;stroke-dasharray:none"
       d="m 9.6627056,1048.0496 c 0.1560857,-0.1558 0.2942809,-0.2713 0.3071017,-0.2566 0.012823,0.015 0.1454337,0.3998 0.2946967,0.8559 l 0.271387,0.8289 -0.5784882,-0.5724 -0.578488,-0.5725 0.2837894,-0.2833 z"
       id="path3929"
       inkscape:connector-curvature="0" />
    <path
       style="fill:#000000;fill-opacity:1;stroke:#000000;stroke-width:0.14153242;stroke-miterlimit:4;stroke-opacity:1;stroke-dasharray:none"
       d="m 5.7621283,1048.6266 0.2756626,-0.824 0.2840527,0.2827 0.2840529,0.2828 -0.550887,0.5501 c -0.3029879,0.3025 -0.5548595,0.546 -0.559715,0.5411 -0.00486,0 0.1152196,-0.3796 0.2668338,-0.8327 z"
       id="path3931"
       inkscape:connector-curvature="0" />
    <path
       style="fill:#000000;fill-opacity:1;stroke:#000000;stroke-width:0.14153242;stroke-miterlimit:4;stroke-opacity:1;stroke-dasharray:none"
       d="m 4.7507203,1047.0537 0.00119,-0.5313 0.55008,0.5476 0.5500799,0.5477 -0.5329942,0 c -0.2931464,0 -0.5412221,-0.01 -0.5512787,-0.016 -0.010057,-0.01 -0.017746,-0.2573 -0.017086,-0.5496 z"
       id="path3933"
       inkscape:connector-curvature="0" />
    <path
       style="fill:#000000;fill-opacity:1;stroke:#000000;stroke-width:0.14153242;stroke-miterlimit:4;stroke-opacity:1;stroke-dasharray:none"
       d="m 3.4907573,1046.3485 0.5407797,-0.5434 0.2674654,0.2664 c 0.1471064,0.1464 0.2554056,0.2766 0.240665,0.2894 -0.014742,0.013 -0.3784502,0.1376 -0.8082451,0.2772 l -0.7814443,0.2539 0.5407788,-0.5435 z"
       id="path3935"
       inkscape:connector-curvature="0" />
    <path
       style="fill:#000000;fill-opacity:1;stroke:#000000;stroke-width:0.14153242;stroke-miterlimit:4;stroke-opacity:1;stroke-dasharray:none"
       d="m 5.6808155,1046.0998 0.9141913,-0.304 -0.2889483,0.8765 c -0.1589221,0.4821 -0.2994198,0.8887 -0.3122178,0.9034 -0.012799,0.015 -0.2941567,-0.2429 -0.6252425,-0.5725 l -0.601975,-0.5994 0.9141923,-0.304 z"
       id="path3937"
       inkscape:connector-curvature="0" />
    <path
       style="fill:#000000;fill-opacity:1;stroke:#000000;stroke-width:0.14153242;stroke-miterlimit:4;stroke-opacity:1;stroke-dasharray:none"
       d="m 5.3818665,1041.7905 c 0.3213506,-0.3208 0.591685,-0.5759 0.6007444,-0.5669 0.00906,0.01 0.1486636,0.4098 0.3102334,0.8907 l 0.2937623,0.8744 -0.8676632,-0.2842 c -0.4772142,-0.1564 -0.879742,-0.2947 -0.8945071,-0.3074 -0.014763,-0.013 0.2360797,-0.2857 0.5574302,-0.6066 z"
       id="path3939"
       inkscape:connector-curvature="0" />
    <path
       style="fill:#000000;fill-opacity:1;stroke:#000000;stroke-width:0.14153242;stroke-miterlimit:4;stroke-opacity:1;stroke-dasharray:none"
       d="m 4.7469753,1041.7063 0.00106,-0.5497 0.5665383,0 0.5665375,0 -0.5584984,0.5576 c -0.3071727,0.3067 -0.5625895,0.5535 -0.5675924,0.5485 -0.00501,0 -0.00862,-0.2563 -0.00804,-0.5586 l 0,0 z"
       id="path3941"
       inkscape:connector-curvature="0" />
    <path
       style="fill:#000000;fill-opacity:1;stroke:#000000;stroke-width:0.14153242;stroke-miterlimit:4;stroke-opacity:1;stroke-dasharray:none"
       d="m 5.7482471,1040.1582 -0.2713867,-0.8292 0.5617722,0.5559 0.5617711,0.5558 -0.2837909,0.2833 c -0.1560833,0.1558 -0.2867567,0.2788 -0.2903834,0.2732 -0.00363,-0.01 -0.1287182,-0.383 -0.277981,-0.839 z"
       id="path3943"
       inkscape:connector-curvature="0" />
    <path
       style="fill:#000000;fill-opacity:1;stroke:#000000;stroke-width:0.14153242;stroke-miterlimit:4;stroke-opacity:1;stroke-dasharray:none"
       d="m 2.9420174,1041.8987 c 0.014772,5e-4 0.393317,0.1226 0.8412075,0.2712 l 0.8143457,0.2703 -0.2839864,0.2835 -0.2839864,0.2835 -0.5572205,-0.5548 c -0.3064718,-0.305 -0.5451335,-0.5543 -0.5303599,-0.5537 z"
       id="path3945"
       inkscape:connector-curvature="0" />
    <path
       style="fill:#000000;fill-opacity:1;stroke:#000000;stroke-width:0.14153242;stroke-miterlimit:4;stroke-opacity:1;stroke-dasharray:none"
       d="m 8.7242205,1043.7201 0.5842738,-0.5833 0.5930816,0.5905 0.5930811,0.5904 -1.168638,0 c -0.642751,8e-4 -1.1725607,0 -1.1773557,-0.01 -0.0048,0 0.2542072,-0.2711 0.5755572,-0.592 z"
       id="path3947"
       inkscape:connector-curvature="0" />
    <path
       style="fill:#000000;fill-opacity:1;stroke:#000000;stroke-width:0.14153242;stroke-miterlimit:4;stroke-opacity:1;stroke-dasharray:none"
       d="m 8.0573798,1045.6858 -1.365e-4,-1.1984 0.6098083,0.6071 0.6098084,0.6071 -0.6009672,0.6 c -0.3305319,0.3299 -0.6048851,0.596 -0.6096737,0.5912 -0.00479,0 -0.00877,-0.5478 -0.00884,-1.207 z"
       id="path3949"
       inkscape:connector-curvature="0" />
    <path
       style="fill:#000000;fill-opacity:1;stroke:#000000;stroke-width:0.14153242;stroke-miterlimit:4;stroke-opacity:1;stroke-dasharray:none"
       d="m 6.6532991,1044.4544 c 0.6427513,-9e-4 1.1725611,0 1.1773552,0.01 0.0048,0 -0.2542058,0.2711 -0.5755564,0.5919 l -0.5842741,0.5834 -0.5930821,-0.5905 -0.593082,-0.5905 1.1686394,0 z"
       id="path3951"
       inkscape:connector-curvature="0" />
    <path
       style="fill:#000000;fill-opacity:1;stroke:#000000;stroke-width:0.14153242;stroke-miterlimit:4;stroke-opacity:1;stroke-dasharray:none"
       d="m 7.3615396,1042.4806 0.5922627,-0.5912 0.00152,1.1651 c 8.37e-4,0.6408 -0.00239,1.1689 -0.00718,1.1738 -0.00479,0 -0.2719913,-0.2534 -0.5937857,-0.5739 l -0.5850821,-0.5824 0.5922631,-0.5914 z"
       id="path3953"
       inkscape:connector-curvature="0" />
    <path
       style="fill:#000000;fill-opacity:1;stroke:#000000;stroke-width:0.03538311;stroke-miterlimit:4;stroke-opacity:1;stroke-dasharray:none"
       d="m 10.089777,1041.1167 c 0.04368,0 0.05455,0.013 0.02926,0.038 -0.01263,0.013 -0.02204,0.01 -0.04273,-0.01 l -0.02653,-0.027 0.03999,0 z"
       id="path3959"
       inkscape:connector-curvature="0" />
    <use
       id="use3963"
       xlink:href="#path3959"
       x="0"
       y="0"
       width="744.09448"
       height="1052.3622"
       transform="translate(0.05729048,-0.0119057)" />
    <use
       id="use3965"
       xlink:href="#path3959"
       x="0"
       y="0"
       width="744.09448"
       height="1052.3622"
       transform="translate(0.08273706,-0.015378)" />
    <use
       id="use3971"
       xlink:href="#path3959"
       x="0"
       y="0"
       width="744.09448"
       height="1052.3622"
       transform="translate(1.1260965,1.1531484)" />
    <use
       id="use3973"
       xlink:href="#path3959"
       x="0"
       y="0"
       width="744.09448"
       height="1052.3622"
       transform="translate(1.1496895,1.1838666)" />
    <use
       id="use3975"
       xlink:href="#path3959"
       x="0"
       y="0"
       width="744.09448"
       height="1052.3622"
       transform="translate(1.1697753,1.1466992)" />
    <use
       id="use3977"
       xlink:href="#path3959"
       x="0"
       y="0"
       width="744.09448"
       height="1052.3622"
       transform="translate(1.1510348,1.1262624)" />
    <use
       id="use3979"
       xlink:href="#path3959"
       x="0"
       y="0"
       width="744.09448"
       height="1052.3622"
       transform="translate(1.3009616,1.3131571)" />
    <use
       id="use3981"
       xlink:href="#path3959"
       x="0"
       y="0"
       width="744.09448"
       height="1052.3622"
       transform="translate(1.2856762,1.2620973)" />
    <use
       id="use3983"
       xlink:href="#path3959"
       x="0"
       y="0"
       width="744.09448"
       height="1052.3622"
       transform="translate(-0.13676083,-0.1156738)" />
    <use
       id="use3985"
       xlink:href="#path3959"
       x="0"
       y="0"
       width="744.09448"
       height="1052.3622"
       transform="translate(0.01574561,0.0497606)" />
    <use
       id="use3987"
       xlink:href="#path3959"
       x="0"
       y="0"
       width="744.09448"
       height="1052.3622"
       transform="translate(0.02460606,0.077957)" />
    <use
       id="use3989"
       xlink:href="#path3959"
       x="0"
       y="0"
       width="744.09448"
       height="1052.3622"
       transform="translate(0.01616097,0.0615437)" />
    <use
       id="use3993"
       xlink:href="#path3959"
       x="0"
       y="0"
       width="744.09448"
       height="1052.3622"
       transform="translate(0.44634917,8.3698405)" />
    <use
       id="use3997"
       xlink:href="#path3959"
       x="0"
       y="0"
       width="744.09448"
       height="1052.3622"
       transform="translate(0.47633755,8.4199791)" />
    <use
       id="use4003"
       xlink:href="#path3959"
       x="0"
       y="0"
       width="744.09448"
       height="1052.3622"
       transform="translate(3.092738,5.8218707)" />
    <use
       id="use4029"
       xlink:href="#path3959"
       x="0"
       y="0"
       width="744.09448"
       height="1052.3622"
       transform="translate(-7.1837948,5.7820869)" />
    <use
       id="use4031"
       xlink:href="#path3959"
       x="0"
       y="0"
       width="744.09448"
       height="1052.3622"
       transform="translate(-7.1609448,5.7289381)" />
    <path
       style="fill:#000000;fill-opacity:1;stroke:#000000;stroke-width:0.01250981;stroke-miterlimit:4;stroke-opacity:1;stroke-dasharray:none"
       d="m 4.608725,1046.3323 -0.00726,-0.024 0.022501,0.023 c 0.012375,0.012 0.021898,0.023 0.021165,0.024 -0.00451,0 -0.023722,0.01 -0.026192,0.01 -0.00164,0 -0.00623,-0.015 -0.010218,-0.028 l 0,0 z"
       id="path4039"
       inkscape:connector-curvature="0" />
    <path
       style="fill:#000000;fill-opacity:1;stroke:#000000;stroke-width:0.01250981;stroke-miterlimit:4;stroke-opacity:1;stroke-dasharray:none"
       d="m 2.715647,1047.0371 c -8.698e-4,0 -0.00588,-0.012 -0.011141,-0.017 l -0.00958,-0.01 0.084105,-0.084 c 0.076291,-0.076 0.083651,-0.084 0.079214,-0.089 -0.00455,0 -0.00418,0 0.0054,-0.01 0.0095,-5e-4 0.05322,-0.044 0.5685364,-0.5579 0.3070378,-0.3065 0.5575848,-0.558 0.55677,-0.5588 -8.138e-4,-8e-4 -0.4421029,-0.1475 -0.9806423,-0.3261 -0.5385398,-0.1785 -0.9798283,-0.3253 -0.9806423,-0.3261 -8.138e-4,-9e-4 0.5210734,-0.5231 1.1597503,-1.1608 l 1.1612296,-1.1592 0.010342,0.01 0.010343,0.01 -0.1534533,0.1532 -0.153454,0.1532 0.6508739,0.6481 0.6508732,0.6479 0.3070975,-2e-4 0.3070981,-2e-4 0.5193706,0.517 0.5193718,0.5172 -0.1608297,0.1605 -0.1608291,0.1606 -0.3263797,0.9784 -0.3263794,0.9784 0.3184163,0.3169 0.3184162,0.3171 0.6514296,-0.6504 0.6514298,-0.6503 -1.821e-4,-0.3253 -1.82e-4,-0.3254 0.182468,0.1817 0.1824682,0.1817 -0.018543,0.018 c -0.088639,0.087 -0.2121867,0.1995 -0.2536979,0.2302 -0.025742,0.019 -0.048058,0.036 -0.049592,0.038 -0.00174,0 0.210808,0.2154 0.5660688,0.5691 l 0.5688589,0.5664 -0.9620352,0.9605 c -0.5291196,0.5282 -0.9629182,0.9596 -0.9639973,0.9585 -0.00108,0 -0.1269453,-0.3766 -0.2797005,-0.8344 l -0.2777366,-0.8326 -0.2472902,0.2466 c -0.2368016,0.236 -0.6505925,0.6424 -0.9250345,0.9084 l -0.1292499,0.1253 -0.011948,-0.01 c -0.00657,-0.01 -0.014833,-0.011 -0.018359,-0.012 -0.00505,0 0.062784,-0.2098 0.3187601,-0.9771 l 0.3251733,-0.9749 -0.6565703,4e-4 -0.65657,5e-4 -4.094e-4,-0.6478 c -2.73e-4,-0.4434 -0.00237,-0.6495 -0.00657,-0.6534 -0.00503,0 -0.1785196,0.052 -0.97166,0.316 -0.5310433,0.177 -0.9686891,0.3222 -0.9725456,0.3228 -0.00486,8e-4 -0.0075,0 -0.00859,-0.01 z m 0.1288223,-0.076 0.04539,-0.015 -0.01628,-0.016 -0.01628,-0.016 -0.031478,0.032 c -0.017313,0.017 -0.030412,0.032 -0.02911,0.032 0.0013,-10e-5 0.022793,-0.01 0.047759,-0.015 z m 0.050791,-0.077 c 0.00337,0 0.00484,0 0.00326,-0.01 -0.00157,0 -0.00486,-8e-4 -0.00729,0 -0.00244,0 -0.0039,0.01 -0.00326,0.01 6.41e-4,7e-4 0.00392,-10e-5 0.00729,0 z m 1.7295284,-0.5154 c 0.011185,0 0.011259,0 0.00159,-0.01 -0.00558,-3e-4 -0.011352,0 -0.012835,-0.01 -0.00233,0 -0.00277,0 -0.00323,0 -7.279e-4,0.012 9.917e-4,0.013 0.014465,0.01 l 0,0 z m -0.022643,-0.06 c 0.00162,0 -0.00284,-0.01 -0.0099,-0.015 -0.010933,-0.01 -0.012095,-0.011 -0.00782,0 0.00724,0.014 0.01433,0.021 0.017731,0.018 z m 1.0665981,-0.2886 0.9676412,-0.3223 -0.6338689,-0.631 -0.6338703,-0.6311 -0.6448001,0.6438 -0.6447997,0.6436 0.3110285,0.3098 0.3110284,0.3096 0.9676409,-0.3224 0,0 z"
       id="path4041"
       inkscape:connector-curvature="0" />
    <path
       style="fill:#000000;fill-opacity:1;stroke:#000000;stroke-width:0.01769155;stroke-miterlimit:4;stroke-opacity:1;stroke-dasharray:none"
       d="m 5.4292609,1039.2643 -0.015063,-0.048 0.039378,0.039 0.039378,0.039 -0.015652,0.011 c -0.00861,0.01 -0.017296,0.012 -0.019305,0.014 -0.00659,0.01 -0.013472,-0.01 -0.028751,-0.055 z"
       id="path4043"
       inkscape:connector-curvature="0" />
    <path
       style="fill:#000000;fill-opacity:1;stroke:#000000;stroke-width:0.03538311;stroke-miterlimit:4;stroke-opacity:1;stroke-dasharray:none"
       d="m 10.523333,1039.2661 c 0.02751,-0.028 0.04989,-0.047 0.04972,-0.044 -1.82e-4,0 -0.0099,0.036 -0.02164,0.072 l -0.02133,0.064 -0.02839,-0.021 -0.02839,-0.021 0.05003,-0.05 z"
       id="path4045"
       inkscape:connector-curvature="0" />
    <path
       style="fill:#000000;fill-opacity:1;stroke:#000000;stroke-width:0.03538311;stroke-miterlimit:4;stroke-opacity:1;stroke-dasharray:none"
       d="m 13.171342,1041.825 c 0.01148,-0.012 0.01807,-0.014 0.01465,-0.01 -0.0034,0.01 -0.01281,0.018 -0.02086,0.021 -0.0081,0 -0.0053,0 0.0062,-0.015 z"
       id="path4047"
       inkscape:connector-curvature="0" />
    <path
       style="fill:#000000;fill-opacity:1;stroke:#000000;stroke-width:0.00884578;stroke-miterlimit:4;stroke-opacity:1;stroke-dasharray:none"
       d="m 13.137051,1041.8224 c 0.0015,0 0.0064,0 0.01089,0 l 0.0082,0 -0.0078,0.01 c -0.0056,0.01 -0.0087,0.01 -0.01089,0 -0.0017,0 -0.0019,0 -4.68e-4,-0.01 z"
       id="path4049"
       inkscape:connector-curvature="0" />
    <path
       style="fill:#000000;fill-opacity:1;stroke:#000000;stroke-width:0.53571427;stroke-miterlimit:4;stroke-opacity:1;stroke-dasharray:none"
       d=""
       id="path4051"
       inkscape:connector-curvature="0" />
    <path
       style="fill:#000000;fill-opacity:1;stroke:#000000;stroke-width:0.53571427;stroke-miterlimit:4;stroke-opacity:1;stroke-dasharray:none"
       d=""
       id="path4053"
       inkscape:connector-curvature="0" />
    <path
       style="fill:#d45500;fill-opacity:1;stroke:#000000;stroke-width:0.02501962;stroke-miterlimit:4;stroke-opacity:1;stroke-dasharray:none"
       d="m 2.848186,1046.939 c 0.00487,0 0.011428,-0.01 0.014576,0 0.00315,0 1.866e-4,0.01 -0.00653,0.011 -0.00674,0 -0.0133,0 -0.014578,0 -0.00127,0 0.00166,-0.01 0.00653,-0.011 z"
       id="path4055"
       inkscape:connector-curvature="0" />
  </g>
</svg>
